<svg xmlns="http://www.w3.org/2000/svg" viewBox="0 0 100 103"><path fill="#000" d="M50 2C26 10 8 18 8 18v37c0 23 20 42 42 47 22-5 42-24 42-47V18S74 10 50 2z"></path><path fill="#fff" d="M50 14C30 21 16 27 16 27v28c0 18 15 34 34 39 19-5 34-21 34-39V27S70 21 50 14z"></path><path fill="#000" d="M50 25C34 31 24 36 24 36v19c0 14 11 27 26 32 15-5 26-18 26-32V36S66 31 50 25z"></path><path fill="#fff" d="M50 36C37 41 31 44 31 44v11c0 11 8 21 19 25 11-4 19-14 19-25V44S63 41 50 36z"></path><text x="50" y="72" font-family="Arial Black,sans-serif" font-weight="900" font-size="36" text-anchor="middle" fill="#000">G</text></svg>